<?xml version="1.0" standalone="yes"?>
<svg xmlns="http://www.w3.org/2000/svg" width="512" height="512">
<path style="fill:#010101; stroke:none;" d="M173 245C156.633 248.879 140.526 257.457 126 265.719C74.1007 295.24 30.5699 345.068 11.3326 402C0.850987 433.02 -9.65925 469.919 18.0394 495.826C44.6235 520.692 89.5454 512 123 512L386 512C420.073 512 466.901 521.136 493.961 495.826C508.073 482.626 512.441 464.564 511.985 446C511.693 434.095 505.114 422.769 492 422.263C468.123 421.342 474.919 442.889 470.146 457C466.814 466.851 457.541 470.907 448 471.83C415.634 474.962 381.53 472 349 472L152 472L80 472C70.1 472 57.1172 473.681 49.0147 466.775C30.0672 450.628 50.9377 410.442 60.3094 393C113.3 294.375 229.729 247.345 335 287.424C364.573 298.683 392.097 317.135 413.961 340C423.71 350.196 430.885 363.283 441.04 372.895C449.597 380.995 463.387 380.962 471.316 371.815C485.609 355.326 464.557 333.97 453.95 322C423.74 287.908 383.689 257.198 339 245C358.843 226.725 375.589 207.96 384.655 182C391.005 163.817 392.091 146.058 391.999 127C391.914 109.291 386.105 90.716 378.247 75C330.903 -19.6877 192.856 -25.1927 138.604 66C130.257 80.0315 124.209 95.855 121.59 112C118.201 132.886 119.317 154.665 125.141 175C133.449 204.009 151.268 224.986 173 245z"/>
<path style="fill:#ffffff; stroke:none;" d="M272 0L272 1C352.505 2.66196 406.612 95.2203 388.525 168C383.565 187.956 374.119 207.343 360.7 223C354.035 230.776 345.146 236.965 339 245C384.007 262.362 421.753 286.665 453.95 323C464.805 335.25 486.174 356.707 469.699 372.671C448.622 393.095 430.07 357.482 418.424 344C379.633 299.098 311.996 267.981 252 272.09C175.368 277.337 102.581 314.506 64.7693 384C55.2434 401.507 47.7082 419.631 42.8735 439C40.1654 449.849 39.5126 461.267 50.0039 468.297C58.36 473.897 71.4746 472 81 472L152 472L362 472L424 472C434.921 472 447.459 473.63 458 470.2C478.483 463.534 464.574 440.225 477.185 428.329C489.395 416.811 509.303 424.429 511 441L512 441L512 0L272 0M243 41.4283C229.171 43.4094 215.743 48.2561 204 55.865C193.451 62.7003 184.357 71.6784 177.205 82C131.185 148.417 188.817 242.059 269 230.572C282.516 228.636 295.45 223.97 307 216.68C317.663 209.95 326.763 201.271 334.09 191C381.334 124.772 323.696 29.868 243 41.4283M0 462L0 512L50 512L50 511C21.0236 508.47 10.8006 484.293 0 462M511 462C508.942 485.569 485.537 508.945 462 511L462 512L512 512C512 497.951 516.409 474.89 511 462z"/>
</svg>
